<?xml version="1.0" encoding="utf-8"?>
<!-- Generator: Adobe Illustrator 25.2.2, SVG Export Plug-In . SVG Version: 6.00 Build 0)  -->
<svg version="1.1" id="Layer_1" xmlns="http://www.w3.org/2000/svg" xmlns:xlink="http://www.w3.org/1999/xlink" x="0px" y="0px"
         viewBox="0 0 100 100" style="enable-background:new 0 0 100 100;" xml:space="preserve">
<style type="text/css">
        .st1{fill:#FFFFFF;}
</style>
<g transform="matrix(1.5, 0, 0, 1.5, -25, -25)">
        <path class="st1" d="M23.083,46.453l5.657-5.657l-4.075-4.075c-1.562-1.562-4.095-1.562-5.657,0c-1.562,1.562-1.562,4.095,0,5.657
                L23.083,46.453z"/>
        <path class="st1" d="M78.906,36.93c-1.562-1.562-4.095-1.562-5.657,0L56.7,53.478c-4.001,4.001-10.38,4.194-14.62,0.595
                l-5.657,5.657c7.37,6.709,18.814,6.525,25.934-0.595l16.549-16.549C80.468,41.024,80.468,38.492,78.906,36.93z"/>
        <path class="st1" d="M79.128,57.854l-4.075-4.075l-5.657,5.657l4.075,4.075c1.562,1.562,4.095,1.562,5.657,0
                C80.69,61.949,80.69,59.416,79.128,57.854z"/>
        <path class="st1" d="M56.055,46.159l5.657-5.657c-7.37-6.709-18.814-6.525-25.934,0.595L19.229,57.646
                c-1.562,1.562-1.562,4.095,0,5.657c1.562,1.562,4.095,1.562,5.657,0l16.549-16.549C45.436,42.753,51.815,42.56,56.055,46.159z"/>
</g>
</svg>
